<?xml version="1.0" standalone="no"?>
<!DOCTYPE svg PUBLIC "-//W3C//DTD SVG 20010904//EN"
 "http://www.w3.org/TR/2001/REC-SVG-20010904/DTD/svg10.dtd">
<svg version="1.0" xmlns="http://www.w3.org/2000/svg"
 width="48.000000pt" height="48.000000pt" viewBox="0 0 48.000000 48.000000"
 preserveAspectRatio="xMidYMid meet">

<g transform="translate(0.000000,48.000000) scale(0.100000,-0.100000)"
fill="#000000" stroke="none">
<path d="M90 385 l-24 -25 59 -60 59 -60 -59 -60 -59 -60 27 -27 27 -27 60 59
60 59 60 -59 60 -59 27 27 27 27 -59 60 -59 60 59 60 59 60 -27 27 -27 27 -60
-59 -60 -59 -58 57 c-32 31 -60 57 -63 57 -3 0 -16 -11 -29 -25z"/>
</g>
</svg>
