<?xml version="1.0" encoding="utf-8"?>
<!-- Generator: Adobe Illustrator 28.4.1, SVG Export Plug-In . SVG Version: 6.00 Build 0)  -->
<svg version="1.1" id="Layer_1" xmlns="http://www.w3.org/2000/svg" xmlns:xlink="http://www.w3.org/1999/xlink" x="0px" y="0px"
	 viewBox="0 0 142.55 112.39" style="enable-background:new 0 0 142.55 112.39;" xml:space="preserve">
<style type="text/css">
	.st0{fill:#FFFFFF;}
	.st1{fill:none;stroke:#000000;stroke-miterlimit:10;}
	.st2{fill:#7F7F7F;}
	.st3{fill:url(#SVGID_1_);}
	.st4{fill:url(#SVGID_00000121258684770566936930000013733300462767663028_);}
	.st5{fill:url(#SVGID_00000088827364032171527170000015836255842922747786_);}
	.st6{fill:#C52026;}
	.st7{fill:url(#SVGID_00000039819402254791461400000005057725608134214583_);}
	.st8{fill:url(#SVGID_00000021089715116614740710000007680146610037088157_);}
	.st9{fill:url(#SVGID_00000113315565672829076600000017414520175160167048_);}
	.st10{fill:url(#SVGID_00000091717480771452488530000013870065784266001336_);}
	.st11{fill:url(#SVGID_00000155828477216418073170000001932470363996141751_);}
	.st12{fill:url(#SVGID_00000047041687131543782410000014126971158772658832_);}
	.st13{fill:url(#SVGID_00000155112930989209389750000009271947328710617758_);}
	.st14{fill:url(#SVGID_00000168813621996706812640000008755538000281473688_);}
	.st15{fill:url(#SVGID_00000062153996513360593610000012246504140418031244_);}
	.st16{fill:url(#SVGID_00000048473854057000688480000003593164895399098029_);}
	.st17{fill:url(#SVGID_00000175324384922400248330000001778424131104383934_);}
	.st18{fill:url(#SVGID_00000026873767091085010010000015403826207935044010_);}
	.st19{fill:url(#SVGID_00000103978754140965504430000009311003126513176740_);}
	.st20{fill:url(#SVGID_00000044144006422047933930000000539954826578900124_);}
	.st21{fill:url(#SVGID_00000037673906261137565980000016855484894497620893_);}
	.st22{fill:url(#SVGID_00000061442528705735772770000002500127897544670363_);}
	.st23{fill:url(#SVGID_00000021830274340426695880000015454732520474382214_);}
	.st24{fill:url(#SVGID_00000142868210752809186740000013200114795790894265_);}
	.st25{fill:url(#SVGID_00000024715518055789268820000011660989048360826269_);}
	.st26{fill:url(#SVGID_00000109002607184335527020000006984701446712279713_);}
	.st27{fill:url(#SVGID_00000150786149935952718480000015866300834524099713_);}
	.st28{fill:url(#SVGID_00000111166028958760582150000017113753720163134904_);}
	.st29{fill:url(#SVGID_00000098920234859603441610000005070420470905864578_);}
	.st30{fill:url(#SVGID_00000170254754344811081460000003034503953916651655_);}
	.st31{fill:url(#SVGID_00000078037947518998844060000008391992621726436239_);}
	.st32{fill:#710F11;}
	.st33{fill:url(#SVGID_00000003092222285110155000000003232599581284067977_);}
	.st34{fill:url(#SVGID_00000165926397297247936950000017462788615830863748_);}
	.st35{fill:url(#SVGID_00000114763039083982315200000006350097321385213096_);}
	.st36{fill:url(#SVGID_00000039836525536780275760000008738406071231828105_);}
	.st37{fill:url(#SVGID_00000000201474737408976070000008435975160890632611_);}
	.st38{fill:#262626;}
	.st39{fill:#E06B27;}
	.st40{fill:url(#SVGID_00000176042496669595592360000013930833687645449384_);}
	.st41{fill:url(#SVGID_00000097467083628462961370000003664587560934188708_);}
	.st42{fill:url(#SVGID_00000098903021202675646440000016705150273070204580_);}
	.st43{fill:#EF8B31;}
	.st44{fill:url(#SVGID_00000029015591931630737340000011223042858450747015_);}
	.st45{fill:url(#SVGID_00000039832517247418991860000007961414983989647762_);}
	.st46{fill:url(#SVGID_00000174585399582924139200000012788369335018009222_);}
	.st47{fill:url(#SVGID_00000161613190992290490990000018154583548086191033_);}
	.st48{fill:url(#SVGID_00000114072929857238143440000017588474739440624256_);}
</style>
<g>
	<g>
		<path class="st38" d="M21.58,94.78v1.74h-2.89v1.73h2.68V100h-2.68v3.73h-2.06v-8.94H21.58z"/>
		<path class="st38" d="M22.76,96c-0.22-0.22-0.33-0.48-0.33-0.8c0-0.31,0.11-0.58,0.33-0.8c0.22-0.22,0.48-0.33,0.8-0.33
			c0.31,0,0.58,0.11,0.8,0.33c0.22,0.22,0.33,0.48,0.33,0.8c0,0.31-0.11,0.58-0.33,0.8c-0.22,0.22-0.48,0.33-0.8,0.33
			C23.25,96.32,22.98,96.22,22.76,96z M22.59,97.74h1.93v5.98h-1.93V97.74z"/>
		<path class="st38" d="M32.28,100.87v0.2h-4.46c0,0.41,0.12,0.75,0.36,1.02c0.23,0.25,0.56,0.38,0.99,0.38
			c0.32,0,0.58-0.06,0.78-0.17c0.15-0.08,0.29-0.25,0.42-0.5l1.82,0.19c-0.21,0.65-0.59,1.15-1.15,1.5
			c-0.49,0.29-1.12,0.44-1.89,0.44c-1.02,0-1.81-0.29-2.39-0.86c-0.6-0.6-0.9-1.37-0.9-2.3c0-0.95,0.3-1.73,0.91-2.36
			c0.57-0.57,1.34-0.86,2.29-0.86c1.01,0,1.8,0.3,2.37,0.9C32,99.04,32.28,99.85,32.28,100.87z M27.89,99.92h2.61
			c-0.07-0.29-0.2-0.52-0.39-0.7c-0.24-0.22-0.54-0.34-0.91-0.34c-0.39,0-0.72,0.13-0.98,0.39C28.04,99.46,27.93,99.67,27.89,99.92z
			"/>
		<path class="st38" d="M33.49,103.72v-5.98h1.93v0.94c0.19-0.37,0.44-0.64,0.75-0.83c0.27-0.17,0.61-0.25,1.03-0.25
			c0.22,0,0.43,0.03,0.63,0.09l-0.11,1.81c-0.27-0.14-0.56-0.21-0.87-0.21c-0.39,0-0.71,0.13-0.96,0.4
			c-0.31,0.33-0.47,0.87-0.47,1.61v2.43H33.49z"/>
		<path class="st38" d="M46.94,94.78v1.74h-2.89v1.73h2.68V100h-2.68v3.73h-2.06v-8.94H46.94z"/>
		<path class="st38" d="M54.52,100.73c0,0.88-0.3,1.63-0.9,2.22c-0.64,0.64-1.51,0.97-2.61,0.97c-1.1,0-1.97-0.32-2.61-0.97
			c-0.6-0.6-0.9-1.34-0.9-2.22c0-0.88,0.3-1.62,0.9-2.22c0.64-0.64,1.51-0.96,2.61-0.96c1.1,0,1.97,0.32,2.61,0.96
			C54.22,99.11,54.52,99.85,54.52,100.73z M51.01,99.18c-0.44,0-0.8,0.14-1.09,0.43c-0.29,0.29-0.44,0.67-0.44,1.12
			c0,0.46,0.15,0.83,0.44,1.13c0.29,0.29,0.65,0.43,1.1,0.43c0.43,0,0.79-0.14,1.07-0.43c0.29-0.29,0.44-0.67,0.44-1.13
			c0-0.46-0.15-0.83-0.44-1.12C51.81,99.32,51.44,99.18,51.01,99.18z"/>
		<path class="st38" d="M55.72,103.72v-5.98h1.93v0.94c0.19-0.37,0.44-0.64,0.75-0.83c0.27-0.17,0.61-0.25,1.03-0.25
			c0.22,0,0.43,0.03,0.63,0.09l-0.11,1.81c-0.27-0.14-0.56-0.21-0.87-0.21c-0.39,0-0.71,0.13-0.96,0.4
			c-0.31,0.33-0.47,0.87-0.47,1.61v2.43H55.72z"/>
		<path class="st38" d="M61.17,96c-0.22-0.22-0.33-0.48-0.33-0.8c0-0.31,0.11-0.58,0.33-0.8s0.49-0.33,0.8-0.33s0.58,0.11,0.8,0.33
			c0.22,0.22,0.33,0.48,0.33,0.8c0,0.31-0.11,0.58-0.33,0.8c-0.22,0.22-0.48,0.33-0.8,0.33S61.39,96.22,61.17,96z M61,97.74h1.93
			v9.05H61V97.74z"/>
		<path class="st38" d="M69.15,98.41v-0.67h1.93v5.98h-1.93V103c-0.4,0.62-0.99,0.92-1.77,0.92c-0.92,0-1.67-0.3-2.24-0.91
			c-0.58-0.62-0.87-1.36-0.87-2.24c0-0.99,0.31-1.8,0.92-2.41c0.54-0.54,1.24-0.82,2.08-0.82C68.1,97.54,68.72,97.83,69.15,98.41z
			 M67.76,99.21c-0.42,0-0.77,0.14-1.06,0.43c-0.29,0.29-0.44,0.66-0.44,1.09s0.13,0.79,0.4,1.07c0.29,0.31,0.67,0.47,1.14,0.47
			c0.39,0,0.73-0.14,1-0.42c0.31-0.29,0.47-0.67,0.47-1.13s-0.15-0.82-0.44-1.1C68.54,99.34,68.19,99.21,67.76,99.21z"/>
		<path class="st38" d="M75.76,99.3h-1.19v4.42h-1.93V99.3h-0.67v-1.55h0.67v-1.93h1.93v1.93h1.19V99.3z"/>
		<path class="st38" d="M81.59,103.72h-2.06l1.43-8.94h1.71l2.23,5.35l2.22-5.35h1.71l1.43,8.94h-2.06l-0.71-5.33l-2.24,5.33h-0.72
			l-2.24-5.33L81.59,103.72z"/>
		<path class="st38" d="M98.31,100.73c0,0.88-0.3,1.63-0.9,2.22c-0.64,0.64-1.51,0.97-2.61,0.97c-1.1,0-1.97-0.32-2.61-0.97
			c-0.6-0.6-0.9-1.34-0.9-2.22c0-0.88,0.3-1.62,0.9-2.22c0.64-0.64,1.51-0.96,2.61-0.96c1.1,0,1.97,0.32,2.61,0.96
			C98.01,99.11,98.31,99.85,98.31,100.73z M94.8,99.18c-0.44,0-0.8,0.14-1.08,0.43c-0.29,0.29-0.44,0.67-0.44,1.12
			c0,0.46,0.15,0.83,0.44,1.13c0.29,0.29,0.65,0.43,1.1,0.43c0.43,0,0.79-0.14,1.07-0.43c0.29-0.29,0.44-0.67,0.44-1.13
			c0-0.46-0.15-0.83-0.44-1.12C95.6,99.32,95.24,99.18,94.8,99.18z"/>
		<path class="st38" d="M106.03,93.95v9.77h-1.93V103c-0.42,0.62-1.05,0.92-1.89,0.92s-1.52-0.27-2.05-0.82
			c-0.62-0.62-0.94-1.43-0.94-2.4s0.31-1.76,0.94-2.36c0.56-0.54,1.26-0.8,2.08-0.8c0.81,0,1.43,0.29,1.86,0.87v-4.46H106.03z
			 M102.71,99.21c-0.41,0-0.75,0.13-1.03,0.4c-0.31,0.29-0.47,0.67-0.47,1.14c0,0.44,0.16,0.8,0.47,1.1c0.29,0.28,0.62,0.42,1,0.42
			c0.43,0,0.8-0.15,1.1-0.44c0.29-0.28,0.44-0.63,0.44-1.07c0-0.43-0.14-0.79-0.43-1.1C103.51,99.35,103.15,99.21,102.71,99.21z"/>
		<path class="st38" d="M113.71,100.87v0.2h-4.46c0,0.41,0.12,0.75,0.36,1.02c0.23,0.25,0.56,0.38,0.99,0.38
			c0.32,0,0.58-0.06,0.78-0.17c0.15-0.08,0.29-0.25,0.42-0.5l1.82,0.19c-0.21,0.65-0.59,1.15-1.15,1.5
			c-0.49,0.29-1.12,0.44-1.89,0.44c-1.02,0-1.81-0.29-2.39-0.86c-0.6-0.6-0.9-1.37-0.9-2.3c0-0.95,0.3-1.73,0.91-2.36
			c0.57-0.57,1.33-0.86,2.29-0.86c1.01,0,1.8,0.3,2.37,0.9C113.43,99.04,113.71,99.85,113.71,100.87z M109.32,99.92h2.61
			c-0.07-0.29-0.2-0.52-0.39-0.7c-0.24-0.22-0.54-0.34-0.91-0.34c-0.39,0-0.72,0.13-0.98,0.39
			C109.47,99.46,109.36,99.67,109.32,99.92z"/>
		<path class="st38" d="M114.92,103.72v-5.98h1.93v0.94c0.19-0.37,0.44-0.64,0.75-0.83c0.27-0.17,0.61-0.25,1.03-0.25
			c0.22,0,0.43,0.03,0.63,0.09l-0.11,1.81c-0.27-0.14-0.56-0.21-0.87-0.21c-0.39,0-0.71,0.13-0.96,0.4
			c-0.31,0.33-0.47,0.87-0.47,1.61v2.43H114.92z"/>
		<path class="st38" d="M120.07,103.72v-5.98H122v0.71c0.46-0.58,1.07-0.87,1.85-0.87c0.74,0,1.31,0.2,1.71,0.6
			c0.4,0.4,0.6,0.99,0.6,1.76v3.78h-1.93v-3.07c0-0.58-0.11-0.98-0.32-1.19c-0.18-0.18-0.42-0.27-0.74-0.27
			c-0.34,0-0.61,0.11-0.8,0.32c-0.25,0.25-0.38,0.63-0.38,1.14v3.07H120.07z"/>
	</g>
	<linearGradient id="SVGID_1_" gradientUnits="userSpaceOnUse" x1="19.4799" y1="81.5374" x2="101.6247" y2="81.5374">
		<stop  offset="0" style="stop-color:#262626"/>
		<stop  offset="0.5041" style="stop-color:#BCBEC0"/>
		<stop  offset="1" style="stop-color:#262626"/>
	</linearGradient>
	<path class="st3" d="M102.19,87.06v1.13c0,0.85-0.68,1.53-1.53,1.53H77.61c-0.85,0-1.55-0.7-1.53-1.55l0.09-13.3
		c0-1.14,1.24-1.89,2.26-1.35l22.94,12.17C101.88,85.96,102.19,86.49,102.19,87.06z"/>
	
		<linearGradient id="SVGID_00000046297389606427686730000011916337990677929355_" gradientUnits="userSpaceOnUse" x1="15.5745" y1="61.5206" x2="107.0341" y2="61.5206">
		<stop  offset="0" style="stop-color:#262626"/>
		<stop  offset="0.4795" style="stop-color:#939598"/>
		<stop  offset="0.9091" style="stop-color:#262626"/>
	</linearGradient>
	<path style="fill:url(#SVGID_00000046297389606427686730000011916337990677929355_);" d="M77.53,64.6l-3.57-1.93
		c-1.05-0.57-2.33,0.19-2.35,1.39l-0.12,19.68c0,1.19-1.28,1.95-2.33,1.39l-16.73-8.87c-0.77-0.4-1.07-1.38-0.65-2.15l16.44-31.06
		c1.79-3.39,5.26-5.32,8.86-5.32c1.5,0,3.03,0.34,4.47,1.05c5.04,2.54,7,8.72,4.33,13.68l-6.17,11.5
		C79.28,64.74,78.3,65.03,77.53,64.6z"/>
	
		<linearGradient id="SVGID_00000044153397148024370130000011567910529656132259_" gradientUnits="userSpaceOnUse" x1="14.2403" y1="51.3398" x2="108.7377" y2="51.3398">
		<stop  offset="0" style="stop-color:#262626"/>
		<stop  offset="0.5041" style="stop-color:#BCBEC0"/>
		<stop  offset="1" style="stop-color:#262626"/>
	</linearGradient>
	<path style="fill:url(#SVGID_00000044153397148024370130000011567910529656132259_);" d="M52.22,63.05L37.99,88.72
		c-0.36,0.62-1,1.01-1.72,1.01H20.85c-1.47,0-2.41-1.56-1.73-2.86L29.86,66.5c0.49-0.94,0.14-2.12-0.79-2.63L16.66,57.1
		c-0.96-0.53-1.3-1.73-0.77-2.67l22.64-40.46c0.53-0.96,1.75-1.28,2.69-0.74l9.12,5.35c0.93,0.54,1.25,1.72,0.71,2.64L35.03,49.26
		c-0.54,0.96-0.2,2.16,0.77,2.69l15.63,8.43C52.39,60.9,52.74,62.09,52.22,63.05z"/>
	<path class="st43" d="M116.46,39.06l-2.8,4.85l0.6,0.34c1.3,0.73,1.78,2.38,1.05,3.68c-0.49,0.9-1.42,1.39-2.37,1.39
		c-0.45,0-0.9-0.11-1.31-0.34l-0.68-0.39l-5.23,9.06c-0.42,0.71-1.35,0.96-2.07,0.54l-9.2-5.3c-0.71-0.42-0.96-1.35-0.54-2.07
		l5.12-8.86L42.9,10.67c-1.31-0.73-1.78-2.38-1.05-3.68c0.49-0.88,1.42-1.39,2.37-1.39c0.45,0,0.9,0.11,1.31,0.34l56.22,31.34
		l8.52-14.75c0.42-0.73,1.33-0.97,2.06-0.56l3.31,1.9c0.73,0.43,0.99,1.38,0.53,2.09c-0.08,0.12-0.14,0.25-0.22,0.37
		c-2.07,3.6-1.78,7.92,0.43,11.09C116.72,37.9,116.77,38.54,116.46,39.06z"/>
	<polygon class="st43" points="111.28,84.22 122.28,89.72 95.08,89.72 97.78,83.78 82.47,83.95 96.51,68.99 95.36,76.14 
		121.52,58.9 108.8,75.93 126.91,74.92 	"/>
</g>
</svg>
